<svg width="500" height="540" viewBox="0 0 500 540" fill="none" xmlns="http://www.w3.org/2000/svg">
<g clip-path="url(#clip0_1_259)">
<path d="M327.334 201.832C326.722 201.178 326.729 200.15 327.408 199.513L350.251 178.12C350.904 177.509 351.932 177.517 352.57 178.197C353.182 178.85 353.175 179.879 352.495 180.516L329.652 201.909C328.999 202.52 327.946 202.485 327.334 201.832Z" stroke="#ECD8BD" stroke-miterlimit="10"/>
<path d="M298.915 177.755C298.38 177.184 298.329 176.312 298.798 175.668L317.565 150.631C318.115 149.911 319.121 149.786 319.817 150.311C320.512 150.835 320.663 151.868 320.14 152.563L301.373 177.6C300.822 178.32 299.816 178.445 299.121 177.921C299.042 177.892 298.966 177.81 298.915 177.755Z" stroke="#ECD8BD" stroke-miterlimit="10"/>
<path d="M266.713 158.96C266.254 158.47 266.145 157.754 266.456 157.105L280.595 129.198C281.016 128.394 281.977 128.057 282.781 128.479C283.559 128.874 283.923 129.862 283.501 130.666L269.363 158.573C268.941 159.377 267.981 159.714 267.177 159.292C266.995 159.206 266.84 159.096 266.713 158.96Z" stroke="#ECD8BD" stroke-miterlimit="10"/>
<path d="M231.763 146.059C231.38 145.651 231.215 145.039 231.392 144.465L240.454 114.516C240.719 113.654 241.604 113.182 242.466 113.449C243.328 113.715 243.8 114.601 243.535 115.462L234.473 145.411C234.208 146.273 233.323 146.744 232.461 146.478C232.199 146.417 231.941 146.25 231.763 146.059Z" stroke="#ECD8BD" stroke-miterlimit="10"/>
<path d="M195.108 139.405C194.802 139.079 194.606 138.598 194.701 138.1L198.42 107.023C198.527 106.156 199.339 105.498 200.206 105.606C201.073 105.714 201.732 106.527 201.625 107.394L197.907 138.47C197.8 139.337 196.987 139.996 196.121 139.888C195.699 139.873 195.363 139.678 195.108 139.405Z" stroke="#ECD8BD" stroke-miterlimit="10"/>
<path d="M157.848 139.246C157.593 138.974 157.419 138.625 157.406 138.229L155.697 106.972C155.646 106.1 156.331 105.305 157.228 105.282C158.1 105.232 158.896 105.918 158.919 106.815L160.628 138.073C160.679 138.945 159.994 139.739 159.097 139.762C158.621 139.799 158.154 139.573 157.848 139.246Z" stroke="#ECD8BD" stroke-miterlimit="10"/>
<path d="M121.146 145.514C120.967 145.323 120.818 145.055 120.748 144.762L113.634 114.274C113.425 113.397 113.981 112.519 114.831 112.336C115.708 112.128 116.586 112.685 116.77 113.535L123.884 144.023C124.093 144.9 123.537 145.778 122.687 145.961C122.101 146.152 121.528 145.922 121.146 145.514Z" stroke="#ECD8BD" stroke-miterlimit="10"/>
<path d="M86.0854 158.113C85.9579 157.977 85.8576 157.816 85.7845 157.629L73.4733 128.84C73.1044 128.011 73.5038 127.074 74.3332 126.706C75.1627 126.338 76.0992 126.739 76.468 127.569L88.7793 156.357C89.1482 157.187 88.7488 158.123 87.9193 158.491C87.2514 158.759 86.5443 158.603 86.0854 158.113Z" stroke="#ECD8BD" stroke-miterlimit="10"/>
<path d="M53.7635 176.58C53.687 176.498 53.636 176.444 53.5867 176.337L36.4723 150.105C35.9692 149.35 36.2122 148.356 36.9396 147.879C37.6943 147.376 38.7157 147.595 39.1662 148.349L56.2806 174.58C56.7837 175.336 56.5407 176.33 55.8133 176.807C55.1657 177.26 54.2989 177.152 53.7635 176.58Z" stroke="#ECD8BD" stroke-miterlimit="10"/>
<path d="M25.147 200.366L3.73076 177.498C3.11887 176.845 3.12563 175.817 3.80548 175.18C4.45813 174.569 5.48643 174.577 6.12381 175.257L27.54 198.124C28.1519 198.778 28.1451 199.806 27.4653 200.443C26.7854 201.08 25.7589 201.019 25.147 200.366Z" stroke="#ECD8BD" stroke-miterlimit="10"/>
<path d="M347.632 526.933L326.216 504.065C325.604 503.412 325.611 502.384 326.291 501.747C326.943 501.136 327.971 501.144 328.609 501.824L350.025 524.692C350.637 525.345 350.63 526.373 349.95 527.01C349.272 527.594 348.244 527.586 347.632 526.933Z" stroke="#ECD8BD" stroke-miterlimit="10"/>
<path d="M350.287 475.645C349.752 475.073 349.701 474.201 350.17 473.558C350.721 472.837 351.727 472.713 352.422 473.237L377.477 492.032C378.198 492.583 378.324 493.59 377.8 494.285C377.249 495.005 376.243 495.129 375.548 494.605L350.493 475.81C350.415 475.781 350.338 475.699 350.287 475.645Z" stroke="#ECD8BD" stroke-miterlimit="10"/>
<path d="M369.02 443.486C368.561 442.996 368.452 442.28 368.763 441.631C369.185 440.828 370.145 440.491 370.949 440.913L398.87 455.083C399.674 455.505 400.012 456.466 399.591 457.269C399.169 458.073 398.209 458.41 397.405 457.988L369.484 443.818C369.302 443.733 369.148 443.622 369.02 443.486Z" stroke="#ECD8BD" stroke-miterlimit="10"/>
<path d="M381.882 408.547C381.5 408.139 381.335 407.527 381.512 406.952C381.777 406.091 382.662 405.619 383.524 405.885L413.481 414.98C414.342 415.246 414.815 416.132 414.55 416.993C414.285 417.855 413.399 418.326 412.538 418.06L382.581 408.966C382.319 408.904 382.061 408.738 381.882 408.547Z" stroke="#ECD8BD" stroke-miterlimit="10"/>
<path d="M388.471 371.869C388.165 371.543 387.97 371.061 388.065 370.564C388.172 369.697 388.984 369.038 389.851 369.146L420.929 372.898C421.796 373.006 422.456 373.819 422.349 374.686C422.242 375.552 421.429 376.211 420.562 376.103L389.484 372.351C389.09 372.312 388.726 372.142 388.471 371.869Z" stroke="#ECD8BD" stroke-miterlimit="10"/>
<path d="M388.643 334.609C388.389 334.337 388.215 333.988 388.202 333.592C388.151 332.72 388.835 331.925 389.733 331.902L420.986 330.227C421.858 330.177 422.654 330.862 422.677 331.76C422.728 332.632 422.043 333.427 421.146 333.45L389.893 335.125C389.417 335.162 388.949 334.936 388.643 334.609Z" stroke="#ECD8BD" stroke-miterlimit="10"/>
<path d="M382.284 297.896C382.106 297.705 381.956 297.436 381.886 297.144C381.677 296.267 382.233 295.388 383.083 295.206L413.561 288.124C414.438 287.916 415.317 288.472 415.5 289.323C415.709 290.2 415.154 291.078 414.304 291.261L383.826 298.342C383.267 298.508 382.667 298.304 382.284 297.896Z" stroke="#ECD8BD" stroke-miterlimit="10"/>
<path d="M369.674 262.847C369.546 262.71 369.446 262.549 369.373 262.362C369.004 261.532 369.403 260.596 370.233 260.228L399.006 247.946C399.835 247.578 400.772 247.979 401.141 248.809C401.51 249.639 401.11 250.575 400.281 250.943L371.508 263.224C370.865 263.519 370.133 263.337 369.674 262.847Z" stroke="#ECD8BD" stroke-miterlimit="10"/>
<path d="M351.201 230.477C351.125 230.396 351.074 230.341 351.024 230.234C350.521 229.479 350.764 228.485 351.492 228.008L377.703 210.92C378.458 210.418 379.479 210.637 379.93 211.39C380.433 212.145 380.19 213.139 379.462 213.616L353.251 230.704C352.576 231.182 351.736 231.049 351.201 230.477Z" stroke="#ECD8BD" stroke-miterlimit="10"/>
</g>
<defs>
<clipPath id="clip0_1_259">
<rect width="497.065" height="257.823" fill="white" transform="translate(188.182) rotate(46.8768)"/>
</clipPath>
</defs>
</svg>
