<svg aria-hidden="true" style="position: absolute; width: 0; height: 0; overflow: hidden;" version="1.1"
    xmlns="http://www.w3.org/2000/svg" xmlns:xlink="http://www.w3.org/1999/xlink">
    <defs>
        <symbol id="icon-mirror" viewBox="0 0 32 32">
            <path fill="#ecd8bd" style="fill: var(--color1, #ecd8bd)"
                d="M26.365 9.352c-0.536-5.246-4.98-9.352-10.365-9.352s-9.829 4.106-10.365 9.352h-3.394v1.067c0 7.228 5.602 13.172 12.692 13.718v2.174h2.133v-2.174c7.090-0.546 12.692-6.49 12.692-13.718v-1.067h-3.394zM16.668 5.29l1.509 1.508-5.689 5.689-1.508-1.509 5.689-5.689zM14.933 21.995c-5.561-0.508-10.002-4.949-10.51-10.51h1.212c0.5 4.895 4.403 8.798 9.298 9.298v1.212zM16.754 13.91l-1.508-1.508 2.844-2.844 1.509 1.509-2.844 2.844zM17.067 21.995v-1.212c4.895-0.5 8.798-4.403 9.298-9.298h1.212c-0.508 5.561-4.95 10.002-10.51 10.51z">
            </path>
            <path fill="#ecd8bd" style="fill: var(--color1, #ecd8bd)"
                d="M20.622 28.444h-9.245c-1.964 0-3.556 1.592-3.556 3.556h16.356c0-1.964-1.592-3.556-3.555-3.556z">
            </path>
        </symbol>
        <symbol id="icon-small-dots" viewBox="0 0 34 32">
            <path fill="#ecd8bd" style="fill: var(--color1, #ecd8bd)"
                d="M4.217 2.105c0 1.166-0.946 2.105-2.105 2.105s-2.112-0.939-2.112-2.105c0-1.159 0.946-2.105 2.105-2.105s2.112 0.946 2.112 2.105z">
            </path>
            <path fill="#ecd8bd" style="fill: var(--color1, #ecd8bd)"
                d="M19.036 2.105c0 1.166-0.946 2.105-2.105 2.105-1.166 0-2.105-0.946-2.105-2.105 0-1.166 0.946-2.105 2.105-2.105 1.166 0 2.105 0.946 2.105 2.105z">
            </path>
            <path fill="#ecd8bd" style="fill: var(--color1, #ecd8bd)"
                d="M33.863 2.105c0 1.166-0.946 2.105-2.105 2.105-1.166 0-2.105-0.946-2.105-2.105 0-1.166 0.946-2.105 2.105-2.105s2.105 0.946 2.105 2.105z">
            </path>
            <path fill="#ecd8bd" style="fill: var(--color1, #ecd8bd)"
                d="M2.105 18.098c1.163 0 2.105-0.942 2.105-2.105s-0.942-2.105-2.105-2.105c-1.163 0-2.105 0.942-2.105 2.105s0.942 2.105 2.105 2.105z">
            </path>
            <path fill="#ecd8bd" style="fill: var(--color1, #ecd8bd)"
                d="M16.932 18.098c1.162 0 2.105-0.942 2.105-2.105s-0.942-2.105-2.105-2.105c-1.163 0-2.105 0.942-2.105 2.105s0.942 2.105 2.105 2.105z">
            </path>
            <path fill="#ecd8bd" style="fill: var(--color1, #ecd8bd)"
                d="M33.863 15.993c0 1.166-0.946 2.105-2.105 2.105-1.166 0-2.105-0.946-2.105-2.105 0-1.166 0.946-2.105 2.105-2.105 1.159-0.007 2.105 0.939 2.105 2.105z">
            </path>
            <path fill="#ecd8bd" style="fill: var(--color1, #ecd8bd)"
                d="M2.105 31.979c1.163 0 2.105-0.942 2.105-2.105s-0.942-2.105-2.105-2.105-2.105 0.942-2.105 2.105c0 1.163 0.942 2.105 2.105 2.105z">
            </path>
            <path fill="#ecd8bd" style="fill: var(--color1, #ecd8bd)"
                d="M16.932 31.979c1.162 0 2.105-0.942 2.105-2.105s-0.942-2.105-2.105-2.105c-1.163 0-2.105 0.942-2.105 2.105s0.942 2.105 2.105 2.105z">
            </path>
            <path fill="#ecd8bd" style="fill: var(--color1, #ecd8bd)"
                d="M33.863 29.874c0 1.166-0.946 2.105-2.105 2.105-1.166 0-2.105-0.946-2.105-2.105 0-1.166 0.946-2.105 2.105-2.105 1.159-0.007 2.105 0.939 2.105 2.105z">
            </path>
        </symbol>
        <symbol id="icon-standarts" viewBox="0 0 32 32">
            <path
                d="M31.853 25.489l-6.9-6.9c0.034-0.027 0.070-0.051 0.108-0.074l1.839-0.979c0.47-0.247 0.825-0.668 0.989-1.174s0.124-1.055-0.111-1.531l-0.916-1.873c-0.070-0.143-0.107-0.3-0.107-0.459s0.037-0.316 0.107-0.459l0.916-1.874c0.235-0.476 0.275-1.026 0.111-1.531s-0.519-0.927-0.989-1.174l-1.841-0.978c-0.141-0.074-0.263-0.18-0.356-0.308s-0.156-0.277-0.183-0.434l-0.361-2.054c-0.090-0.524-0.38-0.991-0.81-1.304s-0.964-0.445-1.49-0.368l-2.065 0.292c-0.157 0.022-0.318 0.008-0.469-0.041s-0.289-0.132-0.404-0.242l-1.5-1.45c-0.38-0.371-0.891-0.579-1.422-0.579s-1.042 0.208-1.422 0.579l-1.5 1.45c-0.115 0.11-0.253 0.193-0.404 0.242s-0.312 0.063-0.469 0.041l-2.066-0.292c-0.526-0.076-1.060 0.056-1.49 0.369s-0.72 0.78-0.81 1.303l-0.361 2.054c-0.027 0.157-0.090 0.305-0.183 0.434s-0.216 0.234-0.356 0.308l-1.839 0.978c-0.47 0.247-0.825 0.668-0.989 1.174s-0.124 1.055 0.111 1.531l0.916 1.874c0.070 0.143 0.107 0.3 0.107 0.459s-0.037 0.316-0.107 0.459l-0.918 1.873c-0.235 0.476-0.275 1.026-0.111 1.531s0.519 0.927 0.989 1.174l1.843 0.978c0.037 0.022 0.073 0.047 0.107 0.073l-6.9 6.9c-0.063 0.063-0.108 0.142-0.131 0.228s-0.021 0.177 0.003 0.263c0.025 0.086 0.072 0.163 0.137 0.225s0.145 0.104 0.232 0.125l4.292 0.991 0.99 4.291c0.020 0.087 0.063 0.167 0.125 0.232s0.139 0.112 0.225 0.137c0.086 0.025 0.177 0.026 0.263 0.003s0.165-0.067 0.228-0.131l7.741-7.742 0.325 0.314c0.38 0.371 0.891 0.578 1.422 0.578s1.042-0.208 1.422-0.578l0.325-0.314 7.743 7.743c0.063 0.063 0.142 0.108 0.228 0.131s0.177 0.021 0.263-0.003c0.086-0.025 0.164-0.072 0.225-0.136s0.104-0.145 0.125-0.232l0.99-4.291 4.292-0.991c0.087-0.020 0.167-0.063 0.232-0.125s0.112-0.139 0.136-0.225c0.025-0.086 0.026-0.177 0.003-0.263s-0.067-0.165-0.131-0.228zM6.441 30.509l-0.857-3.717c-0.021-0.091-0.067-0.175-0.134-0.241s-0.15-0.113-0.241-0.134l-3.717-0.857 6.035-6.035 0.313 1.788c0.090 0.523 0.381 0.991 0.81 1.303s0.964 0.445 1.49 0.369l2.065-0.292c0.158-0.022 0.318-0.008 0.469 0.042s0.289 0.132 0.404 0.242l0.456 0.44-7.093 7.093zM15.273 23.706l-1.499-1.45c-0.379-0.369-0.888-0.576-1.417-0.576-0.097 0-0.194 0.007-0.291 0.020l-2.066 0.293c-0.269 0.039-0.542-0.028-0.762-0.188s-0.368-0.399-0.413-0.667l-0.36-2.054c-0.044-0.233-0.129-0.457-0.25-0.661-0.011-0.024-0.025-0.048-0.040-0.070-0.187-0.304-0.45-0.553-0.764-0.722l-1.843-0.977c-0.24-0.126-0.422-0.341-0.506-0.599s-0.064-0.539 0.056-0.783l0.916-1.872c0.137-0.28 0.209-0.587 0.209-0.899s-0.071-0.619-0.209-0.899l-0.916-1.874c-0.12-0.243-0.14-0.524-0.056-0.783s0.266-0.473 0.506-0.599l1.842-0.977c0.276-0.145 0.514-0.351 0.697-0.603s0.306-0.543 0.359-0.85l0.361-2.054c0.044-0.268 0.192-0.508 0.412-0.668s0.493-0.228 0.762-0.188l2.065 0.292c0.308 0.044 0.622 0.017 0.919-0.079s0.566-0.259 0.789-0.476l1.5-1.45c0.194-0.19 0.455-0.296 0.727-0.296s0.532 0.106 0.726 0.296l1.5 1.45c0.223 0.217 0.493 0.38 0.789 0.477s0.61 0.124 0.918 0.079l2.066-0.293c0.269-0.040 0.542 0.028 0.762 0.187s0.368 0.399 0.413 0.667l0.361 2.054c0.053 0.307 0.175 0.598 0.359 0.849s0.421 0.458 0.697 0.604l1.843 0.978c0.241 0.126 0.422 0.341 0.506 0.599s0.064 0.539-0.056 0.783l-0.918 1.872c-0.137 0.28-0.209 0.587-0.209 0.899s0.071 0.619 0.209 0.899l0.916 1.874c0.12 0.243 0.14 0.524 0.056 0.783s-0.266 0.473-0.506 0.599l-1.842 0.977c-0.276 0.145-0.514 0.351-0.697 0.603s-0.306 0.543-0.359 0.85l-0.361 2.054c-0.045 0.268-0.193 0.507-0.412 0.667s-0.492 0.228-0.761 0.189l-2.067-0.293c-0.308-0.044-0.622-0.017-0.919 0.079s-0.566 0.259-0.789 0.476l-1.5 1.45c-0.194 0.189-0.455 0.296-0.726 0.296s-0.532-0.106-0.726-0.295zM26.791 26.416c-0.091 0.021-0.175 0.067-0.241 0.134s-0.113 0.15-0.134 0.241l-0.857 3.717-7.093-7.093 0.455-0.44c0.115-0.11 0.253-0.193 0.404-0.242s0.312-0.063 0.469-0.042l2.065 0.292c0.526 0.076 1.060-0.056 1.49-0.369s0.72-0.78 0.81-1.303l0.313-1.788 6.036 6.035-3.717 0.857z">
            </path>
            <path
                d="M23.5 12.5c0-1.796-0.644-3.532-1.816-4.893-0.041-0.055-0.093-0.101-0.152-0.135s-0.125-0.055-0.193-0.063-0.137-0.001-0.202 0.019c-0.065 0.020-0.126 0.054-0.178 0.098s-0.094 0.099-0.124 0.161c-0.030 0.062-0.047 0.129-0.050 0.197s0.008 0.137 0.033 0.201c0.025 0.064 0.062 0.122 0.11 0.171 1.073 1.248 1.632 2.857 1.564 4.502s-0.758 3.202-1.931 4.357c-1.173 1.155-2.74 1.821-4.385 1.865s-3.246-0.54-4.477-1.632c-1.232-1.092-2.003-2.611-2.157-4.249s0.319-3.275 1.325-4.577c1.006-1.303 2.469-2.175 4.093-2.44s3.289 0.097 4.657 1.012c0.054 0.039 0.116 0.066 0.181 0.081s0.133 0.016 0.199 0.004c0.066-0.012 0.129-0.037 0.185-0.074s0.104-0.084 0.141-0.14 0.063-0.118 0.076-0.184c0.013-0.066 0.012-0.133-0.002-0.199s-0.041-0.127-0.079-0.182c-0.038-0.055-0.087-0.101-0.144-0.137-1.39-0.93-3.050-1.369-4.718-1.248s-3.247 0.797-4.487 1.919c-1.24 1.122-2.069 2.626-2.356 4.274s-0.015 3.343 0.772 4.819c0.787 1.475 2.045 2.645 3.573 3.323s3.24 0.827 4.862 0.421c1.622-0.405 3.063-1.341 4.092-2.659s1.589-2.942 1.59-4.614z">
            </path>
            <path
                d="M18.888 10.156l-3.896 4.103-1.866-2.126c-0.042-0.054-0.094-0.098-0.154-0.131s-0.125-0.053-0.193-0.059c-0.068-0.006-0.136 0.001-0.201 0.022s-0.124 0.055-0.176 0.1c-0.051 0.045-0.092 0.1-0.122 0.161s-0.046 0.128-0.048 0.196c-0.002 0.068 0.009 0.136 0.034 0.199s0.062 0.121 0.11 0.17l2.225 2.538c0.046 0.052 0.102 0.094 0.165 0.124s0.131 0.045 0.201 0.047h0.010c0.068-0 0.135-0.014 0.197-0.041s0.119-0.066 0.165-0.115l4.273-4.5c0.048-0.047 0.085-0.103 0.111-0.165s0.038-0.128 0.038-0.195c-0.001-0.067-0.015-0.133-0.042-0.195s-0.066-0.117-0.114-0.163c-0.049-0.046-0.106-0.082-0.169-0.106s-0.13-0.034-0.197-0.031c-0.067 0.003-0.133 0.019-0.193 0.048s-0.115 0.069-0.159 0.119h0.002z">
            </path>
        </symbol>
        <symbol id="icon-star" viewBox="0 0 32 32">
            <path fill="none" stroke="#ecd8bd" style="stroke: var(--color1, #ecd8bd)" stroke-linejoin="miter"
                stroke-linecap="butt" stroke-miterlimit="10" stroke-width="1.9945" d="M15.999 0v32"></path>
            <path fill="none" stroke="#ecd8bd" style="stroke: var(--color1, #ecd8bd)" stroke-linejoin="miter"
                stroke-linecap="butt" stroke-miterlimit="10" stroke-width="1.9945" d="M32 15.999h-32"></path>
            <path fill="none" stroke="#ecd8bd" style="stroke: var(--color1, #ecd8bd)" stroke-linejoin="miter"
                stroke-linecap="butt" stroke-miterlimit="10" stroke-width="1.9945" d="M27.313 4.687l-22.626 22.626">
            </path>
            <path fill="none" stroke="#ecd8bd" style="stroke: var(--color1, #ecd8bd)" stroke-linejoin="miter"
                stroke-linecap="butt" stroke-miterlimit="10" stroke-width="1.9945" d="M27.313 27.313l-22.626-22.626">
            </path>
            <path fill="none" stroke="#ecd8bd" style="stroke: var(--color1, #ecd8bd)" stroke-linejoin="miter"
                stroke-linecap="butt" stroke-miterlimit="10" stroke-width="1.9945" d="M30.634 22.466l-29.27-12.932">
            </path>
            <path fill="none" stroke="#ecd8bd" style="stroke: var(--color1, #ecd8bd)" stroke-linejoin="miter"
                stroke-linecap="butt" stroke-miterlimit="10" stroke-width="1.9945" d="M9.534 30.634l12.932-29.27">
            </path>
            <path fill="none" stroke="#ecd8bd" style="stroke: var(--color1, #ecd8bd)" stroke-linejoin="miter"
                stroke-linecap="butt" stroke-miterlimit="10" stroke-width="1.9945" d="M30.833 10.005l-29.666 11.99">
            </path>
            <path fill="none" stroke="#ecd8bd" style="stroke: var(--color1, #ecd8bd)" stroke-linejoin="miter"
                stroke-linecap="butt" stroke-miterlimit="10" stroke-width="1.9945" d="M21.995 30.833l-11.99-29.666">
            </path>
        </symbol>
        <symbol id="icon-white-arrow-left" viewBox="0 0 49 32">
            <path fill="#fff" style="fill: var(--color2, #fff)"
                d="M1.252 14.586c-0.781 0.781-0.781 2.047 0 2.829l12.728 12.728c0.781 0.781 2.047 0.781 2.828 0s0.781-2.047 0-2.828l-11.314-11.314 11.314-11.314c0.781-0.781 0.781-2.047 0-2.828s-2.047-0.781-2.828 0l-12.728 12.728zM49.333 14h-46.667v4h46.667v-4z">
            </path>
        </symbol>
        <symbol id="icon-white-arrow-right" viewBox="0 0 49 32">
            <path fill="#fff" style="fill: var(--color2, #fff)"
                d="M48.081 14.586c0.781 0.781 0.781 2.047 0 2.829l-12.728 12.728c-0.781 0.781-2.047 0.781-2.828 0s-0.781-2.047 0-2.828l11.314-11.314-11.314-11.314c-0.781-0.781-0.781-2.047 0-2.828s2.047-0.781 2.828 0l12.728 12.728zM0 14h46.667v4h-46.667v-4z">
            </path>
        </symbol>
        <symbol id="icon-zup-lines" viewBox="0 0 140 32">
            <path stroke-linejoin="miter" stroke-linecap="butt" stroke-miterlimit="10" stroke-width="6.6667"
                d="M138.002 31.901l-27.803-27.167-28.262 27.167-27.136-27.167-28.262 27.167-26.944-27.167-28.262 27.167">
            </path>
        </symbol>
        <symbol id="icon-arrow-left" viewBox="0 0 32 32">
            <path
                d="M7.724 16.878l14.801 14.76c0.485 0.483 1.27 0.483 1.754-0.002s0.483-1.27-0.002-1.754l-13.92-13.882 13.92-13.881c0.485-0.484 0.486-1.269 0.002-1.754-0.243-0.243-0.561-0.365-0.878-0.365s-0.634 0.121-0.876 0.362l-14.801 14.76c-0.234 0.232-0.365 0.549-0.365 0.878s0.131 0.645 0.365 0.878z">
            </path>
        </symbol>
        <symbol id="icon-arrow-right" viewBox="0 0 32 32">
            <path
                d="M24.276 15.122l-14.801-14.76c-0.485-0.483-1.27-0.482-1.754 0.003s-0.482 1.27 0.003 1.754l13.92 13.882-13.92 13.881c-0.485 0.484-0.486 1.269-0.003 1.754 0.243 0.243 0.561 0.365 0.879 0.365s0.634-0.121 0.876-0.362l14.801-14.76c0.233-0.232 0.365-0.549 0.365-0.878s-0.131-0.645-0.365-0.878z">
            </path>
        </symbol>
        <symbol id="icon-arrow-up-small" viewBox="0 0 32 32">
            <path fill="#ffd28d" style="fill: var(--color3, #ffd28d)"
                d="M32 16c0 8.837-7.163 16-16 16s-16-7.163-16-16c0-8.837 7.163-16 16-16s16 7.163 16 16z"></path>
            <path fill="#000" style="fill: var(--color4, #000)"
                d="M16.849 7.151c-0.469-0.469-1.228-0.469-1.697 0l-7.637 7.637c-0.469 0.469-0.469 1.228 0 1.697s1.228 0.469 1.697 0l6.788-6.788 6.788 6.788c0.469 0.469 1.228 0.469 1.697 0s0.469-1.228 0-1.697l-7.637-7.637zM17.2 24.8v-16.8h-2.4v16.8h2.4z">
            </path>
        </symbol>
        <symbol id="icon-clock" viewBox="0 0 32 32">
            <path
                d="M16 3.333c-6.996 0-12.667 5.671-12.667 12.667s5.671 12.667 12.667 12.667c6.996 0 12.667-5.671 12.667-12.667s-5.671-12.667-12.667-12.667zM2 16c0-7.732 6.268-14 14-14s14 6.268 14 14c0 7.732-6.268 14-14 14s-14-6.268-14-14z">
            </path>
            <path
                d="M16.667 15.608v-8.941h-1.333v9.333c0 0.242 0.131 0.465 0.343 0.583l6 3.333 0.647-1.166-5.657-3.143z">
            </path>
        </symbol>
        <symbol id="icon-diamond" viewBox="0 0 33 32">
            <path
                d="M31.968 9.281c-5.539-8.008-5.303-7.808-5.599-7.84l-8.671-1.317c-2.186-0.332-3.67 0.1-4.429 0.177-0.254 0.039-0.433 0.303-0.399 0.589s0.269 0.489 0.523 0.45c0.769-0.079 2.148-0.485 4.18-0.177l5.954 0.904c-0.446 0.102-7.016 1.612-7.462 1.715l-7.462-1.715 2.579-0.392c0.254-0.039 0.433-0.303 0.399-0.589s-0.269-0.488-0.523-0.45l-5.296 0.804c-0.001 0-0.002 0-0.002 0l-0.007 0.001c-0.007 0.001-0.014 0.003-0.021 0.004-0.005 0.001-0.009 0.002-0.014 0.003s-0.008 0.002-0.011 0.003c-0.005 0.001-0.011 0.003-0.016 0.005-0.008 0.003-0.016 0.005-0.024 0.008-0.003 0.001-0.006 0.003-0.010 0.004-0.001 0.001-0.003 0.001-0.004 0.002-0.005 0.002-0.009 0.004-0.014 0.006-0.008 0.004-0.016 0.008-0.025 0.013-0.004 0.002-0.007 0.004-0.011 0.006s-0.008 0.004-0.012 0.007c-0.004 0.002-0.007 0.005-0.011 0.007-0.202 0.133-0.103 0.142-5.418 7.772-0.111 0.16-0.13 0.377-0.049 0.558 0.187 0.419-0.311-0.408 9.949 14.947 0.155 0.231 0.446 0.277 0.651 0.103s0.246-0.503 0.091-0.734l-9.011-13.467 7.281 2.586c0.175 0.519 5.508 16.381 5.607 16.675l-2.566-3.834c-0.155-0.231-0.446-0.277-0.651-0.103s-0.246 0.503-0.091 0.734c2.687 4.014 2.963 4.43 2.983 4.455 0.339 0.431 0.809 0.704 1.258 0.79 0.066 0.013 0.845 0.012 0.91-0.002 0.566-0.124 1.044-0.485 1.27-0.82l9.075-13.562c0.155-0.231 0.114-0.56-0.091-0.734s-0.496-0.128-0.651 0.103l-8.681 12.974c0.277-0.825 5.403-16.069 5.607-16.675l7.281-2.586-2.901 4.335c-0.155 0.231-0.114 0.56 0.091 0.734s0.496 0.128 0.651-0.103c3.894-5.825 3.684-5.472 3.838-5.814 0.081-0.181 0.062-0.399-0.048-0.559zM16.066 5.112l5.609 7.215h-11.217l5.609-7.215zM1.261 9.4l4.41-6.377 2.99 9.006-7.4-2.628zM6.546 2.664c0.921 0.212 7.521 1.728 8.643 1.986l-5.594 7.196-3.049-9.182zM16.117 30.95h-0.103l-5.91-17.575h11.922l-5.91 17.575zM22.537 11.846l-5.594-7.196c0.744-0.171 7.498-1.723 8.643-1.986l-3.049 9.182zM23.47 12.028l2.99-9.006 4.41 6.377-7.4 2.628z">
            </path>
        </symbol>
        <symbol id="icon-diplom" viewBox="0 0 32 32">
            <path d="M11.909 0h18.948v24.436h-0.937v-23.498h-17.621l-4.886 4.912v4.182h-0.937v-4.569l5.434-5.463z">
            </path>
            <path d="M6.475 24.578h0.937v6.485h22.507v-5.689h0.937v6.627h-24.382v-7.422z"></path>
            <path d="M11.636 5.218v-4.75h0.937v5.687h-5.629v-0.937h4.692z"></path>
            <path
                d="M6.944 13.191c-1.294 0-2.344 1.049-2.344 2.344s1.049 2.344 2.344 2.344 2.344-1.049 2.344-2.344c0-1.294-1.049-2.344-2.344-2.344zM3.663 15.535c0-1.812 1.469-3.281 3.281-3.281s3.281 1.469 3.281 3.281c0 1.812-1.469 3.281-3.281 3.281s-3.281-1.469-3.281-3.281z">
            </path>
            <path
                d="M24.763 24.905c-0.777 0-1.406 0.63-1.406 1.406s0.63 1.406 1.406 1.406c0.777 0 1.406-0.63 1.406-1.406s-0.63-1.406-1.406-1.406zM22.419 26.311c0-1.294 1.049-2.344 2.344-2.344s2.344 1.049 2.344 2.344-1.049 2.344-2.344 2.344c-1.294 0-2.344-1.049-2.344-2.344z">
            </path>
            <path
                d="M6.944 9.436l1.63 1.083 1.955 0.082 0.681 1.835 1.536 1.214-0.529 1.885 0.529 1.885-1.536 1.214-0.681 1.835-1.955 0.082-1.63 1.083-1.63-1.083-1.955-0.082-0.681-1.835-1.536-1.214 0.529-1.885-0.529-1.885 1.536-1.214 0.681-1.835 1.955-0.082 1.63-1.083zM6.944 10.562l-1.329 0.883-1.594 0.067-0.555 1.497-1.252 0.989 0.432 1.537-0.432 1.537 1.252 0.99 0.555 1.497 1.594 0.067 1.329 0.883 1.329-0.883 1.594-0.067 0.555-1.497 1.252-0.99-0.432-1.537 0.432-1.537-1.252-0.989-0.555-1.497-1.594-0.066-1.329-0.883z">
            </path>
            <path
                d="M4.605 20.135h0.937v4.828l1.406-0.951 1.405 0.951v-4.741h0.937v6.508l-2.343-1.586-2.343 1.586v-6.594z">
            </path>
            <path d="M15.385 3.343h3.281v0.937h-2.344v0.937h9.847v-0.937h-6.59v-0.937h7.527v2.812h-11.721v-2.812z">
            </path>
            <path d="M27.103 9.905h-13.124v-0.937h13.124v0.937z"></path>
            <path d="M27.103 13.655h-13.124v-0.937h13.124v0.937z"></path>
            <path d="M27.103 17.405h-13.124v-0.937h13.124v0.937z"></path>
            <path d="M27.103 21.155h-13.124v-0.937h13.124v0.937z"></path>
            <path
                d="M15.706 25.598l0.448 0.335c-0.005-0.232-0.237-0.397-0.448-0.335zM15.444 24.698c0.814-0.237 1.628 0.378 1.647 1.214 0.009 0.384-0.070 0.729-0.131 0.978-0.007 0.026-0.013 0.051-0.018 0.075-0 0.001-0.001 0.003-0.001 0.004 0.233-0.062 0.582-0.183 1.096-0.385l0.343 0.872c-0.668 0.263-1.144 0.425-1.471 0.48-0.157 0.027-0.349 0.042-0.528-0.020-0.099-0.034-0.198-0.093-0.278-0.185-0.079-0.091-0.121-0.192-0.141-0.282-0.037-0.162-0.013-0.323 0.006-0.427 0.017-0.093 0.043-0.198 0.067-0.294 0.005-0.021 0.010-0.041 0.015-0.060 0.059-0.241 0.11-0.483 0.105-0.734zM15.444 24.698v0 0zM14.599 26.452c-0.362 0.436-0.591 0.884-0.638 1.139l-0.922-0.171c0.089-0.481 0.431-1.076 0.839-1.567s0.966-0.981 1.566-1.156zM14.599 26.452c0.362-0.436 0.773-0.757 1.107-0.855l-1.107 0.855z">
            </path>
        </symbol>
        <symbol id="icon-dots" viewBox="0 0 41 32">
            <path fill="#ecd8bd" style="fill: var(--color1, #ecd8bd)"
                d="M2.459 1.227c0 0.677-0.549 1.227-1.227 1.227-0.683 0.005-1.232-0.544-1.232-1.227s0.549-1.227 1.227-1.227c0.683 0 1.232 0.549 1.232 1.227z">
            </path>
            <path fill="#ecd8bd" style="fill: var(--color1, #ecd8bd)"
                d="M15.019 1.227c0 0.677-0.549 1.227-1.227 1.227s-1.227-0.549-1.227-1.227c0-0.677 0.544-1.227 1.221-1.227s1.232 0.549 1.232 1.227z">
            </path>
            <path fill="#ecd8bd" style="fill: var(--color1, #ecd8bd)"
                d="M27.573 1.227c0 0.677-0.549 1.227-1.227 1.227s-1.227-0.549-1.227-1.227c0-0.677 0.549-1.227 1.227-1.227s1.227 0.549 1.227 1.227z">
            </path>
            <path fill="#ecd8bd" style="fill: var(--color1, #ecd8bd)"
                d="M40.133 1.227c0 0.677-0.549 1.227-1.227 1.227s-1.227-0.549-1.227-1.227c0-0.677 0.544-1.227 1.227-1.227 0.677 0 1.227 0.549 1.227 1.227z">
            </path>
            <path fill="#ecd8bd" style="fill: var(--color1, #ecd8bd)"
                d="M2.459 11.008c0 0.677-0.549 1.227-1.227 1.227s-1.227-0.549-1.227-1.227c0-0.677 0.549-1.227 1.227-1.227s1.227 0.549 1.227 1.227z">
            </path>
            <path fill="#ecd8bd" style="fill: var(--color1, #ecd8bd)"
                d="M15.019 11.008c0 0.677-0.549 1.227-1.227 1.227s-1.227-0.549-1.227-1.227c0-0.677 0.549-1.227 1.227-1.227 0.672 0 1.227 0.549 1.227 1.227z">
            </path>
            <path fill="#ecd8bd" style="fill: var(--color1, #ecd8bd)"
                d="M27.573 11.008c0 0.677-0.549 1.227-1.227 1.227s-1.227-0.549-1.227-1.227c0-0.677 0.549-1.227 1.227-1.227s1.227 0.549 1.227 1.227z">
            </path>
            <path fill="#ecd8bd" style="fill: var(--color1, #ecd8bd)"
                d="M40.133 11.008c0 0.677-0.549 1.227-1.227 1.227s-1.227-0.549-1.227-1.227c0-0.677 0.549-1.227 1.227-1.227s1.227 0.549 1.227 1.227z">
            </path>
            <path fill="#ecd8bd" style="fill: var(--color1, #ecd8bd)"
                d="M2.459 20.8c0 0.677-0.549 1.227-1.227 1.227-0.683 0-1.232-0.549-1.232-1.227s0.549-1.227 1.227-1.227c0.683-0.005 1.232 0.544 1.232 1.227z">
            </path>
            <path fill="#ecd8bd" style="fill: var(--color1, #ecd8bd)"
                d="M15.019 20.8c0 0.677-0.549 1.227-1.227 1.227s-1.227-0.549-1.227-1.227c0-0.677 0.549-1.227 1.227-1.227 0.672-0.005 1.227 0.544 1.227 1.227z">
            </path>
            <path fill="#ecd8bd" style="fill: var(--color1, #ecd8bd)"
                d="M27.573 20.8c0 0.677-0.549 1.227-1.227 1.227s-1.227-0.549-1.227-1.227c0-0.677 0.549-1.227 1.227-1.227 0.677-0.005 1.227 0.544 1.227 1.227z">
            </path>
            <path fill="#ecd8bd" style="fill: var(--color1, #ecd8bd)"
                d="M40.133 20.8c0 0.677-0.549 1.227-1.227 1.227s-1.227-0.549-1.227-1.227c0-0.677 0.549-1.227 1.227-1.227 0.677-0.005 1.227 0.544 1.227 1.227z">
            </path>
            <path fill="#ecd8bd" style="fill: var(--color1, #ecd8bd)"
                d="M2.459 30.576c0 0.677-0.549 1.227-1.227 1.227s-1.227-0.549-1.227-1.227c0-0.677 0.549-1.227 1.227-1.227s1.227 0.549 1.227 1.227z">
            </path>
            <path fill="#ecd8bd" style="fill: var(--color1, #ecd8bd)"
                d="M15.019 30.576c0 0.677-0.549 1.227-1.227 1.227s-1.227-0.549-1.227-1.227c0-0.677 0.549-1.227 1.227-1.227 0.672 0 1.227 0.549 1.227 1.227z">
            </path>
            <path fill="#ecd8bd" style="fill: var(--color1, #ecd8bd)"
                d="M27.573 30.576c0 0.677-0.549 1.227-1.227 1.227s-1.227-0.549-1.227-1.227c0-0.677 0.549-1.227 1.227-1.227s1.227 0.549 1.227 1.227z">
            </path>
            <path fill="#ecd8bd" style="fill: var(--color1, #ecd8bd)"
                d="M40.133 30.576c0 0.677-0.549 1.227-1.227 1.227s-1.227-0.549-1.227-1.227c0-0.677 0.549-1.227 1.227-1.227s1.227 0.549 1.227 1.227z">
            </path>
        </symbol>
        <symbol id="icon-facebook" viewBox="0 0 32 32">
            <path fill="#fff" style="fill: var(--color2, #fff)"
                d="M15.949 0.485c2.885 0.033 5.491 0.742 7.818 2.127 2.3 1.357 4.212 3.282 5.556 5.59 1.377 2.341 2.081 4.963 2.114 7.865-0.082 3.971-1.334 7.362-3.757 10.174s-5.527 4.552-8.739 5.219v-11.133h3.037l0.687-4.375h-4.599v-2.866c-0.026-0.594 0.162-1.178 0.53-1.645 0.368-0.469 1.016-0.715 1.943-0.739h2.777v-3.832c-0.040-0.013-0.418-0.064-1.134-0.152-0.812-0.095-1.63-0.146-2.448-0.152-1.851 0.009-3.316 0.531-4.393 1.567s-1.627 2.534-1.651 4.495v3.325h-3.5v4.375h3.5v11.133c-3.945-0.667-7.048-2.407-9.471-5.219s-3.675-6.204-3.757-10.174c0.033-2.902 0.737-5.524 2.114-7.865 1.343-2.308 3.256-4.232 5.556-5.59 2.327-1.385 4.933-2.094 7.818-2.127z">
            </path>
        </symbol>
        <symbol id="icon-golden-star" viewBox="0 0 32 32">
            <path fill="#b58224" style="fill: var(--color5, #b58224)"
                d="M30.35 24.746l-6.129-6.818 8.078-4.296-9.051-1.261 3.441-8.511-7.735 4.886-2.807-8.746-2.802 8.746-7.735-4.886 3.436 8.511-9.046 1.261 8.074 4.296-6.124 6.818 8.927-1.932-0.334 9.187 5.605-7.254 5.61 7.254-0.338-9.187 8.931 1.932z">
            </path>
        </symbol>
        <symbol id="icon-instagram" viewBox="0 0 32 32">
            <path fill="#fff" style="fill: var(--color2, #fff)"
                d="M16 19.281c1.812 0 3.281-1.469 3.281-3.281s-1.469-3.281-3.281-3.281c-1.812 0-3.281 1.469-3.281 3.281s1.469 3.281 3.281 3.281z">
            </path>
            <path fill="#fff" style="fill: var(--color2, #fff)"
                d="M16 0.375c-8.629 0-15.625 6.996-15.625 15.625s6.996 15.625 15.625 15.625c8.629 0 15.625-6.996 15.625-15.625s-6.996-15.625-15.625-15.625zM25.654 19.971c-0.075 1.485-0.492 2.95-1.575 4.021-1.093 1.081-2.565 1.484-4.065 1.558h-8.028c-1.5-0.074-2.972-0.477-4.065-1.558-1.083-1.071-1.5-2.536-1.575-4.021v-7.943c0.075-1.485 0.492-2.95 1.575-4.021 1.093-1.081 2.565-1.484 4.065-1.558h8.028c1.5 0.074 2.972 0.477 4.065 1.558 1.083 1.071 1.5 2.536 1.575 4.021v7.943z">
            </path>
            <path fill="#fff" style="fill: var(--color2, #fff)"
                d="M19.912 8.259c-1.955-0.054-5.869-0.054-7.824 0-1.018 0.028-2.171 0.281-2.896 1.056-0.753 0.805-1.038 1.777-1.067 2.865-0.051 1.91 0 7.641 0 7.641 0.033 1.088 0.314 2.060 1.067 2.865 0.725 0.775 1.879 1.028 2.896 1.056 1.955 0.054 5.869 0.054 7.824 0 1.018-0.028 2.171-0.281 2.896-1.056 0.753-0.805 1.038-1.777 1.067-2.865v-7.641c-0.029-1.088-0.314-2.060-1.067-2.865-0.725-0.775-1.879-1.028-2.896-1.056zM16 21.086c-1.006 0-1.989-0.298-2.826-0.857s-1.488-1.353-1.873-2.282c-0.385-0.929-0.486-1.952-0.289-2.939s0.681-1.893 1.392-2.604 1.618-1.196 2.604-1.392c0.987-0.196 2.009-0.096 2.938 0.289s1.724 1.037 2.283 1.873c0.559 0.836 0.857 1.82 0.857 2.826 0 1.349-0.536 2.642-1.49 3.596s-2.247 1.49-3.596 1.49zM21.108 11.964c-0.201 0-0.398-0.060-0.565-0.172s-0.298-0.271-0.375-0.457c-0.077-0.186-0.097-0.39-0.058-0.588s0.136-0.378 0.278-0.521c0.142-0.142 0.323-0.239 0.521-0.278s0.402-0.019 0.588 0.058c0.186 0.077 0.345 0.207 0.456 0.375s0.171 0.364 0.171 0.565c0 0.134-0.026 0.266-0.077 0.389s-0.126 0.236-0.221 0.33c-0.094 0.094-0.207 0.169-0.33 0.22s-0.256 0.077-0.389 0.077z">
            </path>
        </symbol>
        <symbol id="icon-leaves-box" viewBox="0 0 91 32">
            <path fill="#ecd8bd" style="fill: var(--color1, #ecd8bd)"
                d="M59.069 32h-13.461c0-17.674 14.385-32 32.131-32h13.461c0 17.674-14.385 32-32.131 32z"></path>
            <path fill="#ecd8bd" style="fill: var(--color1, #ecd8bd)"
                d="M32.131 32h13.461c0.016-17.674-14.385-32-32.131-32h-13.461c0 17.674 14.385 32 32.131 32z"></path>
        </symbol>
        <symbol id="icon-menu" viewBox="0 0 32 32">
            <path d="M2 6h28v6h-28zM2 14h28v6h-28zM2 22h28v6h-28z"></path>
        </symbol>
    </defs>
</svg>